<svg height="2575" viewBox="0 0 1427 2575" width="1427" xmlns="http://www.w3.org/2000/svg"><g fill="#b30839"><path d="m751.8125 0-5.40625 3-2.8125 1.5-.78125.4062-4.3125 1.5-4 1.7813-4.1875 1.9063-3 1.3124-2.625.5938-3.6875-.094-3.5-.7187-2.6875.3125-1.90625.094-3.59375.9062-3.71875.9062-2.59375 1.4063-2.90625 2.2813-.78125 1.2187-1.71875 2.2813-1.40625 3.2187-1.1875 3.375-1.5 3.4063-1.59375 1.9062-2.3125 1.5-2.78125 1.1875-1.90625.625-.90625.2813-3.1875.8124-3.71875-.094-2 .375-2.5.4063-2.09375 1-1 1-1 1.3124-.0937 2.4063.5 1.5 1.09375 1.5.5 1.5v2l-.59375 1.0937-.40625.9063-.6875.6875-1.3125 1.5938-4.6875 2.8124-5.125 4-4.09375 3.0938-3.09375 2.5-2.5 2-2.09375 1.4062-.40625.2813-2.59375 2.3125-2.21875 2.5-1.59375 2.5-1.6875 2.9062-1.5 3-1.71875 2.7813-1.59375 2.2187-1.09375 3-.1875 2.5-.90625 2.1876-1.3125 2.2187-1.09375 3.5-1 6v1.0937l-1.59375 3.9063-3 3.0937-1.90625.9063-2.59375 1.875-1.71875 2.5-1.875 2.625-.625 2.1875-1 2.5-.5 3-.875 2.3125-2.71875 3.7813-.0937 1.5.40625 3 1.78125 2.5 2 2.5937.625 1 .5.7187.5 2-.5 2.5-1.21875 3.5-.6875 1.4063-.71875 1-3.59375 6-1.40625 2.5937-2.09375 4.5-2.59375 5-2.5 5-1.09375 3-1 2.5938-.5 2.1875-.8125 1.9063-1.28125 2.7187-.3125.7813-1.6875 2.5-2.5 3.5-2.71875 1.9062-1.6875 1.4062-1.8125 1.7813-1.28125 1.7187-1.125 2.5-1.1875 1.7813-1.5 3.5-2.6875 6.4063-2.90625 4.7187-2 2.875-3.59375 4.7187-3.90625 4.6876-3.8125 2.9062-5.09375 4-3.6875 2.3125-3 1.6875-2 .5-2.125 1.0938-1 1-1.875 1.8124-.5 2.0938-1.21875 1.5938-.90625 1.4062-2.1875 1.5938-2.90625 2.0937-.6875.7187-2.5 1.2813-2.59375 2.5-2.3125 1.4063-1.3125.5-2.5.094-1.59375.3125h-.90625l-2.59375 1.6875-1 .7187-.40625.5-2.6875 2.9063-2.59375 3-2.5 6-1.59375 3.5937-.3125.7813-1.6875 3-.5 1v1.2187l.375 1.5938 1 1.5 1.5.3125 2.21875-.4063 2.09375-.5 2.5-1.9062 2.6875-1.6875 1.5-1.7187 2-1.6876 2-1 2.21875-.5937 1 .5.5 1.5v1.5937l-1.21875 2.9063-1.59375 2.5-3.1875 3.875-4.21875 3.5-2.09375 1.9063-.5.5-3.1875.9062-3.5.9062-2.5 1.4063-3.21875 1.2813-3 1.5-2.59375 2-1.90625 1.8124-1.28125 1.5938-1.90625.8125-1.5.5-1.59375 1.875-1 1.7187-1.09375 2.5-.90625 1.7813-1.90625 5.625-1.09375 2.5937-1.59375 1.9063-1.625 2-1.5 1.5-.59375 2.5-.59375 2v1.5937l-.3125 2.4063-1.375 1-1.625 1.375-2.09375 1.5-2.09375 2.4063-2.59375 1.9062-3 2.5-2.09375 1.5-3.3125 1.9062-1.6875 1-1.40625.9063-5.09375 3.875-1.21875.9063-6.6875 3.5-6.3125 2.7187-5.1875 1.2813-1.21875.5937-2.1875 1.3125-3.5 1.8125-4.1875 2.375-5.125 2-6.1875 2.4063-4.1875 3.4062-3.625 3.3125-1.375 1.375-4.5 3.625-3.625 2.5937-2.59375 1.6876-1.5 1.7187-.1875 2.7813v1.2187l-.0937 1.2813v1.7187l-.21875 1.1875-1.40625 2.1875-1.6875 2.4063-1 2.9062 1.5 3.5.40625.4062 1.90625 1.7813 1.78125.8125 1.59375 1.0938 3.71875 1.4062 2 .5 1.5 1.5938 1 2 .5 3v2l.5 2.5937.6875 1.75h1020.7187l4.875-19.8437 2.3125-9.1876 2.1875-17.4062-6.6875-1.1875-3.5-1.9063-66.3125-37.9062-13.7812-7.5938-20.3125-12.3124-108.5938-63.4063-50.1875-27.0937-10.5-5.5938-7.125-4-70.7812-39.6875-6.5938-3.5-7.2187-4.625-28-18.5937-13-8.6876-22.59375-15-105.90625-65.5937-57.59375-34.7187-37-22.9063-38.6875-24.1875z"/><path d="m396.09375 419.9375.3125.75 3.09375 6 1 2 2.59375 3.625 3.71875 7.875 4.78125 8.8125 3 5.09375 1.8125 2.3125 2 2.1875 2.1875 1.40625 1.90625.90625 2 2.09375 2.09375 2.90625 1.3125 2.5.90625 3.09375.875 3.6875 1 3.625.21875 3.28125 1 3 .90625 2.90625 2.09375 3.5 1.6875 2.59375.3125.40625 2.5 3.5 2.40625 4.3125 3.875 5 2.21875 4.875 1.40625 4.71875.0937 3.78125-1.09375 2.90625-1 2.09375-2.21875 2.40625-1.5 1.8125-1.5 3.09375-.90625 2.5-.875 1.8125-1.71875 1.6875-2.09375.40625-2 .0937-2.59375-.6875-.8125-.5-1.1875-.3125-2.59375-1h-3.125l-3 .5-3.09375.90625-1.59375.59375-1.5 2.09375-1.09375 2.90625.0937 2.59375 1 2.5 1.59375 2.5 2 2.09375 2 2.40625 2 2.59375.90625 4.5-.0937 1.5v2.3125l-.0937.6875-1.125 3.5-.875 2.21875-2.21875 2.40625-1.6875 1.28125-1.21875 1.21875-1.375 1.28125-1.71875 1.5-.40625.5-1.09375 2.40625-1.1875 2.90625-.5 2-1.5 3.59375-2.5 4-3.59375 3.90625-1.5 1.40625-3.125 1.6875-3.1875.6875-2.5 1.90625-1.5 2-2 2.09375-1.40625 2.8125-1.59375 2.8125-1.6875 2.1875-1.125 1.40625-.375.5-1.125.59375h-.375l-2.21875.3125-2.5-.625-3.5-1-.5-.1875-3.09375-1-3.59375-1.09375-3.59375-.71875-3.625-.5-2.5-.0937-.5.0937-2.59375.3125-2.09375 1.5-1.5 1.90625-1 1.78125-.59375 2-.5 3-1 2.625-1.5 3-2 3-2.8125 1.78125-3 1.09375-4.6875 3-3.21875 2.8125-1.1875 1.90625-.40625 1.78125.90625 3.3125 1.40625 2.1875 4 4 1 1.125 1.78125 1.78125 1.21875 1.8125 1.5 2.59375.90625 3-.625 2.5-1.59375 2.40625-.90625 2.09375-.375 1.59375-.40625 1.90625-.90625 2-.1875.59375-1.625 1.59375-2.09375 2.5-2.09375 3.40625-3 6.21875-2 6-1.5 6.59375-.90625 4.40625-.0937 1.09375 1 4.5 1.09375 2.5 2.3125 1.90625 3.5 1.78125 3.90625.71875 4.1875.59375 3.09375.5 1.8125 1.5 1.09375 3.59375-.5 3-1 3.09375-2.40625 2.3125-2.09375 2.09375-2.59375 2.5-2.71875 2.40625-2.59375 3-1.78125 2-1.5 3.40625-.71875 1.875-.40625 2.625-.0937 2.5.5 2 1.5 1.09375 1.40625 2.09375 1 1.09375 1.8125 2.71875 1 3.5.5 2.59375.5 4 .28125 5.40625-.0937 2-1.09375 3-1 1.1875-.59375.6875-1.625.3125-2.5 1-1.59375 1-.5 2v2.5l.71875 1.90625.5 2.28125.375 1.40625 2 3 1.5 5 1.125 5.09375 1.09375 4.8125-.0937 2.1875v1.8125l-1.125 4.6875-.6875 3.3125-.0937 2.5v1.59375l2.28125 5.40625 4.40625 4.6875 4.09375 2.8125 3.40625.90625 3.59375 1.28125 4.625.71875 4.1875-.59375 4-1.90625 2.59375-2 2.90625-2.21875 2.59375-1.875 2.21875-1.5 3-1.5 1.59375-.40625 4.09375-.3125 7.09375.71875 6.71875 1.09375.5.1875 6.6875 2.21875 4.90625 2.09375 3.5 2.59375 2.40625 2.1875 1.5 1.71875 3.09375 3.40625 4.78125 5.28125 4.90625 5.40625 2.46875 2.40625h701.43755l1.6875-3.40625 5.7187-4.5 4.0938-2.09375 4.5937-1 7.2188-1 2.5-3 2-8.59375 1.5937-10.125 2.5-7 2-6.59375v-1.5l-.5-9.09375-.5-6.5 1-8.09375 1-8 1.5-6.59375 3.0938-7 3.5937-4.625 4.5938-3.5 5.625-4 7.6875-1.59375 5.0937.5 5.7188-4 2.5-4.5 4.0937-6.09375 4.5938-6.09375 1.5-5 .5-4.5 2.0937-5.09375 4.5938-4.5 5.625-4.625 3.0937-6 1.5-4 1.5-4.59375 4.0938-4 4.5937-3 2.5938-.5 5.125-1.59375h5.0937l1.0938 9.59375v3.5l-2.0938 6.09375-4.5937 7-4.625 7.125-4.0938 2-4.5937 7.59375-2 6-2 5.09375-1.5938 6-1 4v2.09375l1.5938 1.5 5.5937-.59375 4.0938-2.5h7.2187l4.5938.5h3.5937l3 .5 3.5938-2-1.5-3.5-4.0938-3.09375-1.5937-3 2.5937-4.5 4.0938 1 8.2187 3 3.0938 1 3 1 3.0937 1 2.5938-2-2.5938-5.09375-6.0937-2.5-4.0938-2-2.5937-4 4.0937-2h5.0938l5.5937-4.125 1-6 1.5938-3.5 2.5-1.09375h5.7187l3-.5 3.0938-5 2.5937-4.09375 2-1.5 4.5938-4 1-2 1.625-3.09375 6.375 1.1875.125-.59375 2.1875-12.6875 3.5-21.625 2.8125-13 .2812-1.59375 1.5-7.59375 1-5.5 2.5-4.90625 3.7188-5 4.2812-8.1875 7.0938-12.8125 4.4062-7.90625 1.5-2.59375 6.5935-11.5937 5.7188-11 5-11.6875 1.2812-2.90625 11.5-26.8125 10.625-27.90625 1.375-4.09375 5.4063-15.5 5-13.5 3.4062-13.09375 5.8125-22.1875 3.2813-13.5.7187-2.875z"/><path d="m428.0625 845.90625 1.125 1.09375 2.625 3 3.59375 3.5 1.6875 3.40625.8125 4.1875.59375 3.5-.5 5v4.59375l-.5 4.125v6.875l.5 3.625.40625 2.09375.1875 2.5.40625 9.09375v9.09375l.40625 6-.21875 3.5-1.09375 4.59375-.5 2.5-1.78125 7.8125-.8125 3.59375-1.09375 3.09375-1 3.5-.0937 3-.625 3-.0937 1.625.3125 2 .5 3.5937 1 3.9063 1.40625 3.0937 1.1875 3.4063.90625 3 .1875.5937v1.5001l1 5 .8125 4.6875.90625 3.0937.78125 2.125 2.21875 1.5 2.5 2.0938 2 .5937 3 1.5938 2.6875 1.9062 2.3125 2.3125 2 1.5 3.09375 2.5 3.5 1.6875 3 1.0938 2.59375.094 4.09375-.875 2.59375-.9063 4.5-1.4062 5.625-2.5 2.375-.6875 2.5-.5 2.40625-.3125h.71875l2.1875.4062 3.40625 1 3.28125 2.0938 2.125 1 2 1 3.6875 2 1.6875.9062 2.8125 1.6875 2.59375 1.8125.40625.4063 2.09375 2.2812 1.40625 2.8125 1.6875 2.6875 1.71875 3.4063 1.78125 3.8125 2.21875 4.875 2.1875 5.125 2.90625 9.5 2 9.2812.90625 7.8125 1.28125 7.0938.90625 3.5 2.09375 3.5 3.40625 3.5937 2.8125 3.4063 2.09375 2.5937 2 2.5 6.1875 7 3.40625 2.9063 2.3125 2.3125.5.1875 3.09375 1.9062 3.5 1.0938 3.09375.5937 2.5.5938 2.09375.5 3.125 1.5 1.875.7187 2.5 2.0938 2.125 1.5 2.28125 1.5 4.09375 5.3125 4.40625 5.2812 3.21875 4.2188 2.1875 2.7812 1.40625 1.7188 4 7.0937 2 4.5938 2.1875 5.9062 1.5 5.2813 1.59375 4.3125 1.90625 3.6875 1.09375 3.9062 2.125 3.4063 2.5 4.0937 1.59375 3 1.28125 1.5938.3125.4062 1.6875 1.7188 1.90625.7812 6.09375 3.5938 6.125 4.125 3.59375 1.7812 4.1875 1.8125 4.59375 2.1875 3.625 2.0938 4.09375 2.7187.5.2813 4.59375 2.9062 5 4.2188 2.59375 1.375 3.40625 3.3125 1.90625 1.6875 1 1.125 2 2.875 2 3.625 1.40625 3 1.5 3.5937 1.78125 3.5 2.09375 3 1 2.5.3125 2.5938 1.09375 3.0937.71875 1.8125 1.5 2.5938 2.09375 1.9062 2.5 2.0938 2.09375 1.5 2 1 3.59375 1.5.90625.5 1.6875 2.0937 2.21875 2.0938.59375.625 3 2.5 3.40625 4.375 2.59375 4.4062 1.6875 4.8125.21875 6.1875-1.5 3.8125-.40625.7813-2.09375 4.5-3.5625 3.6875h605.18755l.6562-2.5625 1.625-8 3-11.625 1-5.5938.5-6-2-3-2.625-.5-5.5937 3-5.5938 2-7.1875-1-7.7187-3-5.6875-5.5-2.5-2.5-.5938-3 2.0938-4.0937 4.5937 1 4.0938 3.5937 2.5937 2 4.625-.5 2-3.5937 1.0938-2.5h4.0937l2.5 3.5 2.0938 2 5.5937 2.5 4.125-.5 3.5938-2 2-8.5938 4.0937-9.5 2.5938-7.5937v-11.125l-.094-7.5 2.5937-7.0938 2-4.5 3.5937-7.0937 4.125-11.0938 1.5-7.5 2.5938-9.0937 2-12.625-.5-9-.5938-6.0938.5-11.0937 2.0938-7.5 4.0937-7.0938 2-9.5.5-2.0937 1-6-2.0937-10.625v-12.5938l1.5-12 1-9.0937v-8.5938l.5-7.5-1-2.5-.5-1.5937-2.0938-5.5-.5-7.5-.5-7.625-2.125-8.5-1-9.5938-.094-6.0937-2.5-3.5-1.5938-6-3.0937-9.0938-2.5-7-2.5938-4.5-5.7187-7.59375-2.5-1.5-4.5938-3-2.5937-2-4.0938 1.5-2.625 2v3l4.2188 2.59375 2 5 .5 3.5v5l.5937 6.0938 5.5938 1h3.5937l2.5-.5 3.625 3.5v4l-2 4.0937v3.5l4.5938 11.5 5.6875 12.5938 2.5937 6.625v5l1 7v2.5937l.625 3.5 1 4.5v4.5l.5 10.0938 1.0938 7.0937-1.5938 9-1 6.5938-2 7-3.625 7.625h-3.5937l-3.5938-.5-3 2 1 4.5937-2 3-.5937 1.5-2 3.5-4.0938-1-1-2.5-3.625-1-2.5937 3.5-1.5 3.0938-1.5 1.5h-3.0938l-1.5937-2v-3.5938l2.0937-4-1.5937-4.5-2.5-3.5-.5938-3.0937h3.5938l4.6875 1.5 6.5937-2.5 1.5-3.5-2-3 4.125-3.625 6.5938-3 5.0937-4.5 2.0938-5.5938.5-7-1-3.0937-5.1875-2-4.5938-2-4.625-1.5-6.6875-.5-4.5937 3.0937-5.0938 1-3.625 2.5-2.5 5.5938-2.5937 1-6.0938.5h-2.5937l-5.0938 4-4.125 3.125-3.0937 4-4.0938 2-3.5937-2-1-5 2-3.625 8.1875-5 4.5937-4 4.625-1.5938 5.1875-1.5 1.5-3 2.5938-2.5 3.5-1.5937 2.5937-.5 4.125-3.5 3.5938-3 2-2.5 4.5937-2.0938 4.0938 2 6.2187 1 2 3.0938 2.0938 1.5 2.5937 2.5 1.5 2h3.0938l.5-4.0938-1-5.5-.5938-6.5-.5-5.0937-4.0937-4.5-3.0938-5-3.625-5.125-7.1875-3-18.4062-2.375-8.1875-1.5-5.2188-3-6.5937-1-7.6875-2-4.0938-3.625-7.7187-4.5-5.6875-5-9.7188-6-11.7812-4.5-8.2188-1.5-4.5937-3.5-6.1875-4.5938-6.5938-4h-4.7187l-1.5.5-4.5938 5.5938h-7.6875l-9.2187-1.5-7.1875-6-4.0938-3.00005-4.625 5.50005-5.5937 11.125-10.7813 6.5937-6.125.5 2-2 1-3.5937-1.5-4.5-6.6875-5-5.5937-1.5-6.7188-2-11.2812-6.12505-9.7188-5-7.1875-3.5-5.5937-11.59375-.5938-6.5-14.3125-11.09375-9.8125-3-8.6875 3.09375-5.0937 10.59375-3 8-3.5938 4.125-12.8125 1.5-6.6875-1.5-4.625-2 6.125-5.125 5.0938-3.5 7.1875-4 5.0937-5.09375 6.2188-6.5 2-5.59375 3.0937-4 5.0938-1h6.7187l8.1875 3 5.5938 2 3.5937 2.5 3.125 5 2.5 3 4.0938.5 2.5937-5v-5l-.5-4.09375 1-3.5.5-4 1.5-3.59375 2.0938-4 3-3.5 2.0937-4.125.5-4-1.5937-5-1-7.09375 1-5.5 2.0937-4.5 1.8125-3.6875h-701.4375z"/><path d="m719.84375 1271.875-.4375.4375-4.21875 3.375-3.59375 2.9063-3.6875 2.4062-2.59375.8125h-2.8125l-3.90625.094-4.09375.5-2.5.9062-.59375.1875-3.3125 1.4063-3.09375 2.0935-2.5 2.3125-2.59375 1.875-2.09375 2-.5.3125-2.125 1.5938-2.09375 1-2.40625.4062h-2.59375l-.59375-.1875-2.59375-.5-2.90625-.8125-4.6875-2.4062-.40625-.1875-4.71875-1.9063-3.59375-1h-3.5l-3.09375 1-2.59375 1-2.09375 2-1.90625 2.5938-2 3.3125-1 3.7812-1.71875 4-.59375 4.5-1 3.5-1.90625 2.5-2.59375 2.125-3.09375 2-3.59375 1.7813-2.5 1.8125-2.09375 1.9062-1.8125 2.1875-1.40625 2.1875-1.40625 2.125-2 2.0938-1.59375 1.5-3.09375 1.4062-2.90625 1.2813-3.1875 1.3125-3.09375 1.5937-3.8125 1.4063-4.59375 1.5-4.09375 1.5-2.71875 1.1875-3.09375.9062-3.59375.9063-3.09375 1-3.125.9062-3.09375.2813-5.6875.4062-2.90625-.094h-1.1875l-4.125.9062-4 2.2813-8.1875 5.5-10.5 6.9062-6.40625 3.1875-5.1875 3.125-1.3125 1.0938-2.28125 1.9062-3.5 3-3.125 2.375-2.09375 2.4063-4.28125 4.9062-2.3125 2.9063-.90625 1.0937-3.1875 2.9063-3.71875 2.7812-.375.3125-3.71875 2.6875-2.78125 2-2 1.2188-5.3125 2.5937-5.5 1.8125-4.1875 1.375-4.125 1.4063-3.6875 1.9062-3.09375 1.9063-2 2.1875-2.71875 2.8125-1.1875 2.4062-2.1875 3.375-1 3.5-1.5 3.125-1.625 3-1.5 3-3 3.2813-3.09375 3.5937-3.6875 3.2188-4 3.1875-5.71875 2.8125-6.6875 2-6.59375 2.0937-3.59375 1.1875-6.21875 2.3125-6.90625 4.4063-4.6875 3.4062-1.59375 1.0938-.90625 1-3.3125 3.1875-2.5 3-1.1875 2.5-1.3125 3.4062-.375 2.6875-.71875 4 .40625 4.4063.40625 4 .28125 4.5937.90625 4.625.90625 4.5.90625 3.0938 1.40625 4 .875 3.0937.5 3-.0937 4.5-.5 3.4063-.28125 1.5937-1 4.5-1.625 3.5938-2.5 4-2.5 3.3125-.59375.6875-3.5 3.4062-3.1875 2.3125-.5.1875-2.71875.6875-4.375 1-5.90625.2188-6.59375-.2188-6-.6875-3.625.1875-1.78125.3125-.90625.094-2.90625 1.0938-1.78125 1.4062-.90625.5-1.71875 1.2188-.6875.5-1.5 2.2812-6.3125 5.8125-5.6875 4.7813-1.09375.7187-6.3125 3.9063-9.40625 4.0937-10.375 3.6875-6 1.4063-6.125 1.1875-6.1875 1.8125-5.59375 1.5-5 1-5.09375.5937-5.8125.4063-8.09375-1.3125-8.3125-1.5938-6.1875-.5937h-5.0938l-5.125.4062-4.0937 1.0938-3.5938 1.0937-1.5.5938-4.1875 1.9062-4.125 2.4063-5.0938 3.0937-6.5937 5.0938-5.6875 6-14.7188 12-24.6874 18.4062 7.6874 6.9063-4.0937 2-8.1875 3.5-4.5 2.5937-.625.4063-4.5 2.5-1.0938 1.0937-2.5937 2.5-6.1875 5.5-6.125 6.5938-3.0938 3-2 3-2.0937 1-2 2-1.5936 2.125-1 3-1.5 3-1.0939 3-1.5 4.5937-2 4.5-2.125 4-1.5 3.5-2.0938 4.0938-.125.3437h1122.4688l-1.5312-.25-7.5938-1-4.125-1-3.5937-1-1.0938-5.5.5-4.5v-5.0937l.5-3v-2l1-4 2.0938-2.0938 1-2.5 2.0937-3 1.5-2v-2.5l-2.5937-3.5937-1.5-3-2.0938-5 3.5938-4 3.0937-3.125 4.625-4 2-8.0938-.5-5.5 2.5-7.5 7.6875-3.5937 5.1875-1.5-1.0937-4.5-4.0938-1-4.0937.5-2.5-1-.094-3.5 4.0938-2.5938 5.6875-1.5 5.0937-2.5 3.125-5.0937 2.5-7.5.5-4.5 1.5938-4.125 2-1.5 4.0937-1 4.0938-1.5 2.5937-2.5-3.0937-4.0938-3.0938-1-5.0937-.5-3.5938 1.0938h-4.125l-3.5937-1-2-.5-1.0938-1.5 1-4.0938 2.0938-.5 3.5937-.5h6.625l3.0938-.5 2.0937-4-.5937-3.5937-.5-6.5 2.0937-6 2.5-8.0938 5.0938-9.0937 3.0937-6 3.125-4.125 4.5938-4 2.5-1.5 3.0937-1.5 2-2v-3.5938l-1.5-2-3.0937-1-4.5938.5h-5.625l-6.6875.094-6.1875-.5-6.125 1.5-3.0937-1-3.5938-2.5-4.5937-3-4.0938-4.0937-3.125-1.5-5.5937-1.5h-3.5938l-4.5937.5937h-1.5938l-2-1.5v-5.5937l-.5-2 8.1875-.5h3.5l3.5938-1 3.5937-1.0938 4.125 3.0938 2.0938 2 5.5937 5 5.1875 1 6.125 1 4.0938 1 3.0937-.5 3.0938-3 1.5-2.0938 2.5937-.5 3.625.5 2.5-3 1.5-4.5.5-3.5937 1.0938-2-.5-1.5-1.0938-3-.5-2 2.0938-2 1.5-5.5938 2-4v-1.5l-1-2-3.0938-2-2-2.5-1.625-1.625.5-2.5 2.625-2 .5-2v-2.5l-1.5-1-3.125-2-2.5937 1.5-2 2.5-4.5938 1.5-6.1875-2-3.125-2-1.5-4 2-5.5937 2.125-2 1-2 4.5938 1 4.5937 1.5h4.5938l1.5937-2 3-3 2.125 1.5 2.5938 1 3-1 1.5937-4.0938-2.0937-3-3.0938-2.5-6.125-2h-10.2812l-2.5-.5-1.0938-3 5.0938-6.5937-2-2.5-4.5938-4-2.125-1.5-.5-2 3.125-3h4.0938l3 3 3.5937 5 4.0938 3 3.0937 1.5 3.625 1 4.5938-1.5 3.0937 2.5 1 4.5 2.0938 3.0937 3.5937-.5937 5.625-.5 2.5938-7.5-1.0938-5.5938 7.1875-5.5 2.0938-3.5 1-6.125.5-2-.5-4.5-5.6875-1-7.2188 1.5-5.5937 2.5-5.5938 2.125-2.0937-3.125h-5.0938l-5.125 1.125-3.0937-2.5-2.5938-3.125-5.0937-.5-3.0938-3 .5-4.5 5.5938-2.5 4.6875 5 9.2187 1.5 6.6875 1 6.0938 2 5.0937-2 4.125-1.5937 5.1875-3.5 3-2 4.0938-3 3.0937-2.0937 6.7188 1.5 1 .5-.5 2.5938-1.5 3-1.5938 5.5-2 5.5937v5.5l.5 6.5v11.625l.5938 4.0938-1.0938 8-1.5 4.5-1.5 4.5937-3.125 7-1 4.5938-2.5 8-.5 7.5937-1.5937 7-1.5 7.125-2.5 7.5-3.5938 3.0938-2.0937 2 .5 4 1.5937 2.5 3.0938 3 2 4.5937.5 5-1 6-1.5 5.5938-2.5938 4.5-1.5 3.5-1.5 3.0937-1.5 8.5-1.0937 8.625-1 7.5-1 7.0938-.5 4.5v8.0937l.5 5-.4063 8.0938-1.5937 10-1.5 8.5937-.5 8.5.5 9.625.094 10.0938v4l-2.5937 7.0937-3.0938 7.5-1.5 3.5v3.0938l-.5 5 1.5938 5 1.5 4v4.5937l-2.5 4-3.0938-.5-3.625-1.5-2.0937 1.5-.5 2-.5 3.125h2.5937l3.625.375 2 1.625 2.5938 3.5 3.0937-.5 1-.5.5-2.625 2.0938-3 1-4 1.5-5 1-6.0937v-19.0938l1-8.0937 1.5-5.5 1.5937-4.5 1.5-9.0938v-8.125l1-6 1.5-9.0937 2.5-9 1.125-8.5938-.625-9.0937-.5-10 2.5-17.0938.5-13.625 2.125-9.5937 2.5-13.5938 1.5-10.5937 2.0938-7.5 2-9.0938 2.5-11.625 1.5-20.0937 4.0937-16.0938-.5-10.0937-.5-5.5 2-11.0938 2-5.625 2.0938-7.5 2-5.0937 3.5937-8.5 2-6.5938 2.125-7.5 2-10.0937.5-6.5-.5-7.0938v-5.5l-1.625-2.5-.5-.5-3.5937-2.125-7.1875-1.375-9.2188 1.5-7.1875 5-6.5937 2.0938-8.2188-3-5.1875-.5-6.0937-6.5938-1.5938-7-2-13.625 1.5-3 2-1.5 1.0938 3.5 2 5.5 3.5937 7.125 4.6875 3 2.5 3 3.125 2.5 5.0938-1 7.1875-3.625 5.5937-3 2.125-1.5 2.5 1 3.5938 1.5 6.6875.5 5.0937-5.5937.5-10.5v-10.5938l1-12.5937 2.3438-9.0316h-605.18755zm553.96875 165.7188-1.125 2-.5 3.5-.5 2 1 2.5 3.125 1.5 1.5938-2.5v-3l-1.0938-3-1-3zm-1 52.3125-1 1.5v3.0937l-1.5 3.5 1 3.5 2.0938.5 1 .5 1.5-1.5v-3l.5-3.0937-2-4.5zm-31.5 163.6875-1 2.5.5 1.5 1 1 1.0938 2.5 1.5 3 1.5 3.0937 3.0937 2 2.0938 1.5 3.0937-.5.5-2.5-1.0937-3.5937-2-5-3.0938-2-4.5937-3zm-11.2187 35.7187-3.0938 1.0938-.5.5.5 2-.5 1 .5 1.5 2.0938.5h3.0937l4.625-1.5 2-1.5938v-2l-2-1-3.625-.5zm28.2187 6.5-2.625 2.5938-3 5-3.0937 7.5-1.5 9.0937-.9063 2.8438h7.0938l2.5312-4.3438 2.5-7.0937.5938-5.5.5-6.5938z"/><path d="m80.9687 1697.8438-.875 2.6562-.5 3.5-.5 3-1 4.5938v3l-.5 2-.5937 1.5-1 1.5h-2.5l-2.5937-.5-1-.5-1.5938.5-1 2-.5 2-2.3125 4.5-2.3125 4.5937-1.0938 1.625-3.4062 3.2813-2.1875 1.7187-1.5 2.5-1 3-.5 4-.5 4.0938-.5 4.5-.5937 2.5-.5 4.5-.5 3-1.5 3.0937-2.0938 3-2 2.5-2.125 2.5-2 2-2 2.0938-1.5938 2.5-1.5 2-1 2.5-1.5937 2-1 1-.5 1-3.0937 2-3.5938 1.5937-2.625 2-2 2-1.5 2-1.5938 1.5-2.5 2-2.0937 2.5-1.5 3.125-1.8125 5.375-.7812 2.125.5 5.0938 1.5937 6.9062 1.5 7.0938.5937 1.9062.5 1.6875 1.5 2.5 3.0938 3 4.125 2.5 2 1.5 2.0938.5 2 .5 1.5937 1.5.5 1.5v1.5938l1.5 2 1.0937 2 1.5 1.5 2.0938 1.5 7.2188 2 3 2.5 2.0937 2.5 1.5 3.5937.5 3.5-.5 4-2.5 5.5-1 3.625-1.5937 3-1.5938 2.6875-1.5 2.3125-2 2.5-3.125 3.0938-3.5938 3-1.5 2-.5 3 .5 1.5 1 2 1.8126 1.1875 1.2812.9062.5 1v4l-.5 5.5-1 4.0938v4.5l.5 1.5-.5 2.5-1 2.5-.5 1.5-.5 3.0937.5 2.5.5 1 2 6-1.5938.9063-1.4062.8125-1.5938.7812-9.4062.5-9.2812.4063h-6.5938l-1.625 3.5-1.0938 2.5-1.7812 6.4062-.8125 3.0938v4l4.5 10.2187 7 10.375 2.6875 3.4063 7.7188 8.5 7.1874-4.5h6.7188l4.0938-1.5938 6.1874.5 5.5938 4.5938 6.7188 6.5 3.0937 2 7.1875 3 9.2188 9.5937 10.7812 11 5.125 10.125 3.5938 9.0938 6.1874 5.5 4.0938 2.5 5.125 4.5 4.0938 7.0937 6.1874 3.5 5.5938-2 7.2188-2.5 3.0937-1.0937-1.5937 4.0937 1.0937 5 5.0937 3.5v5.0938l3.5938 5 1 14.0937 1.625 3 4.5938 2 4.0937 3.5 4.5937 5.125 7.2188 7.5 2.0938 3h5.5937l2.0937-3.5 1-5 1.5-.5 1.5938-1.125 9.2188 1.5 6.6874 2.625 2.5 6 .5 6 .094.5313h665.21875l2-4.25 2-4.0938 3.09375-1.5 6.09375 4 3.59375 2.0938 5.21875-.5938.5-10 4.09375-5.5937 3.5-2.5 2.09375-12.5938 1-7.5 8.71875-4.125 3.09375-.5 9.6875.5 5.71875 3 1 2.5.5 6.625-.5 2.5v1.5l-5.625 6.5938-5.6875 3 2.59375 3h2.59375l-1 4-.59375.5-2.5 2.5937-2.09375 2-3 2.5-2.59375 1.5-4.59375 2.5-3.625 1.5-.125.8438h41.53125l9.90625-3.9375 7.6875-3 9.21875-5.5 10.6875-7.0938 10.8125-6.625 5.59375-4.5-.5-1.5v-1l-.5-2.5-.5-2-1-3.5937-1.09375-4-2-2-3.09375-.5-5.625-1-1.09375-1 .5-2 1.09375-2.5-1.09375-3.5-2-1.5938-5.1875-1-2 .094h-1l-.59375-2.0937 1.09375-3v-3l-4.71875-3-9.6875-3-8.6875 1-8.21875 2.5-5.09375 4.5937-.0937-11.5937-2.5-12.5938 3-3.5 12.78125-4.0937 3.625-7 .5-17.125 3.59375-6.0938 6.6875.5 2.5-5-1-7.0937 2-2.5 4.59375.5 1.125 4.0937 8.1875.9063 2.5.5v1l-1 4.0937 2.59375 7.5 3.59375 5.5938 2.625 4 5.09375 4 4.0938-3 7.1875-4.5938-4.6875-9.5-3.5938-5.0937-1.5-6 2-4h5.1875l1.5-4.0938-5.0937-9-5.68755-.5-1.5-3.5 4.59375-5.5937 8.6875 1 2.0938 5.0937 6.125 1.5 3.0937-4.0937-2.5937-7-13.3125-12.625-4.1875-7 .5-9.0938-8.7188-9.5.5-11.5937v-3.5l4.09375-1.5-3.59375-9.5938-1-7-2.09375-7.0937 3.59375-1.5 7.2188 4.5 5.0937 3.5.5 7.5937 1.5938 4.5 4.5937-.5 6.0938-.5 9.3125 1 7.6875 1.5-1.5938-7.0937 3.0938-3 5.625 2.5.5937 5 8.1875 1.5 7.0938-4 6.7187 5.5 5.6875 3.5-1.5937 3.0937-1 3 3.5937 3.5 1 2.5-4.0937 1-1.5 1.5.5 4.0938-.5 3.5-1 4 1 1 1 1.5 5.6875-4h6.125l5.6875 1.5v-6.0938l2.5-3.5 6.6875-7-2.0938-4.0937-.5-4.5 1.5-3.5-5.5937-5-6.6875-2.5-4.125-2.625-2.0938-4-2-2-4.0937-1-1-4.5-.5938-3-3.5-2.5-3.0937-3.0938-1.125-4.5.5-6.5 1.125-3.0937h3l2.0937 3.5937 3.5938 1 2-4.0937 1-3 .5937-2.5 4.5938-2 4.125-.5.5-5.5938 1-7 2-5.0937 5.1875-3 3-2 1.5937-.5 2 2.5 2.5938 4.5h2.625l.5-4.5-1.125-4.5 1-2.625 6.2187-2 2.0938 2 3 3.625 5.1875-.625 3-1 2.125-2-1.625-3.5-2-3.5.5-3.0938.5-1.5 3.625-3.5 1.5-3v-5.5937l3.5937 1.0937 3.5938-.5937.5-1-2.0938-4-1-8 1.5-2.5938 2.0938-1 1 1 3.5937 1 6.2188-2 2.5-2.5 3.5937.5 2.5938 1.5 2-.5 2.5937-4 .5-1.0937 1-5 4.5938-3.5.5-3-.5-4.125 2.125-1.5 1.5-2.5 2.5937-3 6.0938-1 6.0937-4.0938 3.5938-2 2.625-2-.5-2-3.625-1-3.0938-.5-1-1 1.5-4.0937 1.5-2.5 2.0938-4 6.125-3 2.0937-1.0938v-6l1.5-4.5 2.5938-.5 4.5937 2 3.5938-.5 1-4.0937 1-1.5 2.625-1.5 1.5-2 .5-2-5.625-1.5h-5.0938l-2.5937-.5-2.5938-1-1-2-1.5-2v-2l4.0938-.125 3 .5h2.0937l3.5938-.5.5-3-2.0938-2.5-1-2.5 1.5-6.5938v-2.5l-.5-1.5-4.6562-.7502h-1122.4688zm1166.2188 0-2.1875 6.75-6.0937 4.5-3.5938.5-2.625.5-1.5 2.0937v2l1 3 .5 2 1.625 4-.5 4.125-1.5 5-2.125 4.5-2.5 3-2.5937 3.0938-3.0938 5v5l-.5 3.0937-3 2-3.0937 5.5-2.0938 5.5938-2 3.5-4.125 3-3.0937 2.5-2 2.0937-2.0938 3-1.5 5-2.5937 3.5-3.5 4.625-2.0938 4.5-1 5.0938-.5 3.5-1 5-2.125 4.5-3 4.5937-4.0937 8-4.0938 6.0938-4.5937 9.0937-3.0938 5-3.125 4-1 4.125-.5 3-1.5 3-3.5937 1.5-3.5938 2-2.5 2.5938-2.5937 5-1.5 3.5-1.5938 4.5-2 4.0937-4.625 4.5-2.5937 1.5v2.5l-.5 3.5938-2 8-2.5938 4.0937-3.0937 2-4.5938 1-1 1-.5 3.5v5.625l-.5 4.5-1.5 3.5-4.625 4.5938v4l1 2 1.5 1 3.125-2 3.5938-4.0938 2.5937-6 3-5 3.0938-6.625 1.5-2 3.0937-4.5 3.125-6.0937 3.5-6 4.5938-6.0938 5.6875-9.5937 5.0937-5 3.125-6 2.5-3.5938 3.5938-7.5 5.0937-8.125 4.5938-10.0937 2.5937-6.5 3-4.5 5.125-6.5938 4.6875-7 4-7.0937.5-4 4.0938-6.0938 5.7187-9.5 3-5.625 5.0938-8.5937 5.6875-8.5 3.5-9.0938 4.5937-10.5937 2.125-7.5 3-7.0938 2.5938-6 3.0937-9.125 2-6.5 3.0938-5.5937 3.5-5.5 1.0937-3.5 3.5-5.0938.094-.1562h-7.0938zm-26.1875 31.4687-2.0937 1-.5 1.5-1 .5v2.5l.5 1.5 1 1 1.5937 1.0938 2-.5938 1.5938-2v-3.5l-.5938-1.5zm-39.4062 56.375-1.5938 1-1 1.125-2 1-2.0937 1.5-2.5 2-.5 3 .5 3 1 1.5 3.5937.5 2.5938-1.5.5-1.5.5-2 2-2 3.0937-2v-3.125l-.5-1.5-1.5937-1zm-17.9063 24.7188-1.5937 1-1.5 2.0937-1 .5-1 2 1 3 1 .5h1l2.0937-.5 1-1.5 1-2 2.125-2.0937.5-2-1-1zm-9.1875 35.7812-3.0937.5-1.5 1.5v3h1l1.5937 1 3.5.5 2.0938-2v-2.5l-1.5938-2zm-23.5937 18.625-3 .5-1.5938 1.0938-.5 2-1 1 .5 2 2.0938 2 4.0937.5 1.5-2 1-4-1-2.0938zm-17.3125 32.2813-2.5938 1.5-.5 1-1 1-.5 2 1 2.5 1.5 1.5 3.0938.5 1.5-3.5 1.0937-2v-1l-.5937-1.5-2-1zm-31.7813 4.5937-.5 1.5v5.5l.5 1.5 1.5 1.5 6.1875 1 2-1.5.5-3-1.5-1-2.0937-2-1-1.5-1.5-1-1.5938-.5zm23.0938 48.7188-1.5.5937-1.5 1.5-.5938.5-.5 1.5 1.5938 2h2.5l1.0937-.5 1.5-1.5v-1.5l-.5-2.0937zm-40.9063 31.2812-4.6875 1-6.125.5-12.7812-.875-4.0938 2-1.125 2 2.125 3-1.5 1.5h-4.125l-3.0937-2-1 1 .5 2-.5 3.0938 1 3.5 2.0937 4 2.5 4.5 1.625 4.5937.5 6v7l-1 5.0938-2.125 4-.5 1.5-3 2.5-4.0937 1.5937-3.5938 2-2.5938 4.5-2.5 4-1.0937 3.125 1.5937.5 3.5938 1 2.5 1.5 1.5938 2.5-2.0938 1.5-2.5 1-4.5938 1.5-3.0937 2-1.625 1-5.0938 9.5938-4.0937 3-3.59375-.5-2-2.5-1.09375-2-3-2-1.125-.5-3 1.5v1.5l-1.59375 3.0937v1l.59375 4.5 1 3 1.5 2 4.71875 3.5 3 1 1.59375 3.0938 1 4.5 2.0937-1 2.5-2 3.0938-1.5938 12.3125-7.5 7.1875-6.0937 10.7188-6.5 8.6875-5.0938 5.7187-5 7.0938-9.125 5.6875-9.5937 2.5-6.5 1.5-4.5-1-6.0938-2.5938-2-.5-2.5v-6l2.5938-1.5937h3.0937l3.5 1.5h5.7188l4.0937-2 3.0938-3 .5-4.5v-4.0938l1.5-6 .5-5.625-4.0938-.375-1.5 3.5-4.1875 1-1.5-.5-2-2.5-1.625-3-1-3.125-1.0937-5-3-.5zm-90.1875 54.5-1.625 1-2.5 1-2.09375 2-3 2.625-1.59375 1.5.5 2.5 1.59375 1.5v4l-1 2.5-1.59375 2.5938-2.5 5-1 3 .5 3.5 2 2.0937h3.59375l3.59375-2.5937 2.125-1.5 4.59375-1.5 4.59375-2.5 1-3.5-.5-3.5938-2.09375-2-3.09375-1.5v-2l1.09375-5.5.5-5.625-2.09375-3zm14.875 11.625-2.59375.5-.5 3.5 1 4 .59375 3 1 2.5938 3.625 1 1.5-2.0938v-2l.5-2.5v-3.5l-1.5-2.5-1.125-1z"/><path d="m203.1875 2123.843 1 5.0633 1.5 3 4.125 4 3.5938 9.0937v4l-1.5 4 1 3 1.5937 2.5938 13.8125 8.5 4.6875 6 4.59375 2.5 3.59375-3.5 2-4.5 1.5-3.5 3.125-2 11.78125-.094h7.21875l2 2-.5 6.5937 4.09375.5 5.1875 1.5 3.59375 2v5.5l-4.09375 4.5938-3.59375 1.5 4.09375 5.5 5.59375 3.5 8.3125 6.125 7.09375 2.5 7.21875 2.5 5.6875 2.5 2.5 2 .59375 8.5937 1.5 5.5 2.59375.5 3.5-2 2.625-2.5 4.09375.5 6.6875 3.5 7.21875 11.5.5 7.0938-2 4.5-2.625 4v4.0937l3.125 1.5 3.09375 3-.5 4-2.59375 1-4.625 1-.5 3.5938.5 2.5h4.625l7.6875 4.5 5.09375 7 4.71875 6.625 3.59375 3.5 2 1.5 8.1875-2.5 5.71875-2.5 2.5-4.625.5-6 1.5-5.5938 1.09375-4 4.09375-1.5 5.59375-.5 2.09375-2.5 3.5-2 11.3125 1.5 12.3125 1 18.5-2.5937 1-3 2.09375-3.5 7.09375-1 5.1875 2 1.5 2.5-1 3.5 2.625 2.5 3.59375 8.5937-5.21875 4-.5 4 4.125 3.5938 6.6875-1.0938 11.8125-.5 10.78125 3 17.40625-3.5 7.6875.5 8.21875 3 8.1875 3.5 8.21875 6 5.6875 2.5 6.09375 2.5938 8.3125-.094 4.09375 3.5937 3.59375 6.5 2.5 5.5 5.21875 5.125 2 3.5.5 5-.5 5.5 1.09375 6.0937 1.5 5.5 1.09375 9.5938-1.09375 7-2.5 6.0938-3.59375 6-.5 2.5-1.5 5.0937-3.625 8.5-6.1875 8.625-2 4-2 6.5937-1.59375 8-2 7.5-3.09375 9.0938-4.625 4.5-5.09375 5.5938-4.59375 6-5.09375 5.5937-1.59375 5.5-1 5-1.5 7.625-2.625 8-4.09375 10.0937-1.5 4-4.09375 7.0938-1 2.5-1 3.5-.5 5.0938v2.5l-1.09375 3 1.09375 4.5 1 2 .5 2.5937-.5 4.5-1 5.5-1.5 4.625-5.6875 3-.5 4.5 1.59375 3.5 3.5 5.5937-.5 1-2 4.5-1 2.5 2.5 1.5h4.09375l4.40625 1.4063h7.75l5.84375-.4063 8.6875-2.5 6.21875-1.5 7.6875-2.0937 9.21875-2 5.59375-1 10.78125-3.5 2-.5 3.625-1.625 4.59375-3 4.09375-4.5-1-4-4.59375-1-3.09375 1-2.625 1-3.5.5-1.09375.5-3.59375 1.5-6.09375.5-3.59375-2.5.5-2.5 3.09375-3.5 9.6875-.094h3.09375l4.625-1 5.6875-2 .5-.5v-5l-1.09375-3-3-1.5-3.59375-.5-2.625-1-.5-1.0938-1.09375-5 2.59375-2 4.125 1.5 4.09375 2.5 4.09375-2 1.09375-3.5-.59375-2.5-1.5-3.0938-2.09375-2.5v-2.5l1.09375-.5 2.5-1.5 1.59375.5 3 3.5h4.09375l4.125-1.5 6.1875-3 3.59375 1 1.5 2 2.09375 2 .5.5-2 4-.59375 2-1 2.5938-2.5 2-4.6875 2.5-3 .5-2.59375-3h-4.125l-1 1-2.09375 1.5-.5 4.5 1.59375 3.5938 1.5 4v4.5l-1.5 7.0937 3.125 3 1.5-1 1-1.5 2.09375-3.0937 5.09375-3.5 6.09375-4 5.21875-3.0938 5.09375-4.5 5.09375-6 7.1875-6.5938 7.21875-5.5 10.1875-8.0937 7.21875-8.125 4.09375-7.5v-3.5l-1.09375-3.5-3-2.5937-3.125-4.5v-2.5l-1.09375-3-2-3-1.09375-2-1-3.0938 1.59375-1.5 5.59375-.5 3.625-2.5 1.5-6 2.09375-7.5938 2.5-6 2.09375-4.0937 4.59375-4.5 2-1.5 2.09375-2 1-2 .5-4.625-1-4-1.59375-1-1-.5-1.5-6.5-2.09375-10.5937-1.59375.5-6.09375 5.5-6.71875-10.5 1-6.0938 1.09375-5 6.625-1.5 5.09375-1 5.6875-1 3.59375-1.5h2l2.625 3.5.5 3.5v1.5l.5 2.5 1.09375 6.5938-1.09375 4.5-2 4.5-.5 4 2.09375 6.0937 1.5 2 2.59375 3.5 1.5 3.5-1 2.5-2.59375 2.625-4.09375 2.5-6.625 2-2.09375 5.5-1 3.0937-2.59375 4.5-.5 5.5-.5 3.5938 2.09375 10 3.59375-2.5 1-1 1.5-1 2.625-3.5 4.59375-5.5938 4.09375-3.5 5.59375-5.0937 4.59375-7.5 3.625-6 4.09375-9.125 5.09375-9.5937 4.09375-7 4.09375-6.5938 5.71875-6 4.59375-6.5938v-5l-2.09375-6-1-.5-2.09375-.5-8.71875 2.5-4.09375 2.5-4.09375 1-1-1v-1l1-5.5 1.5-4.5937h-3.59375l-5.125.094-3.59375-1.5937-1.5-1 3.59375-4 12.8125-1.5 2-4v-4.125l1-4.5v-3.5l2.59375-3 1-.5 4.09375-1.0937 1 1.5937-.5 2.5-.5 3.5-1 3.5-1.5 4.5v5.625l1 2 1.625 1 2-.5 3.09375-2 2-1.5 1.59375-4.125 1-3 2-5 1-3 4.6875-2.5937 4.125-3 3.5-6 3.09375-4.5938 1.5-5 3.09375-6.5 2.09375-6.0937 2-3.5 3.59375-4 4.125-6.5938 3.59375-5.5 5.59375-6.125.5-5.5-1.5-1.5-4.09375-1.5-3.59375-1-1.625-2 2.125-1.5 3-.094 2.09375-.5 2-3.5.59375-2.5-.0937-4 4.09375-2 4.1875.5 3.5.5 5.71875-1.5937 5.09375-4 4.09375-4 3.59375-6.0938 4.625-11.0937 2.5-7.5 4.59375-7.125 8.1875-9 9.8125-8.0938 9.1875-2.5 9.71875-3.5937 5.1875-3 3.5-13.5938-3.09375-6-2.5-2.5-4.59375.5-5.71875 2-3.09375 3-5.59375 4.0938-4.59375 3-5.625 3.5-5.1875-2-4.59375-3.5-1.5.5-1.59375.5-1.5 3-.5 2.0937.5 1 1.5 2 1.09375 2.5v3l-.5 3-2.59375 3-3.625 2.5938-2.5 1.5-5.1875 3.5-3.5 4-1.59375-.5-1-3 2-7.5 3.59375-11.5938 1.5-2.5-1-4.5937-5.59375-2-8.8125-3-9.6875 1.0937-7.71875-2.5937 3.125-3.5 4.09375-5.5-4.09375-6.5938-4.71875-3.5 5.71875-5.5 5.59375 3 4.59375 3 3.59375 1 2.59375-3.5 3.625-3.5 2.5.4063 3.09375 3.5937 5.09375 3 7.1875-.5 7.71875-4.5937 15.40625 1 7.1875 4 7.1875-.5 5.625-6 4.09375-5.125-1.59375-6.5-3.625-7 3.21875-6.8438zm700.375.0008-.375 2.75-1 3v5l-1.59375 4.5937-1.5 3.5-3.09375 3.5-2.5 2.5-2.09375 5.125-.5 2 1.59375 1h2l3.59375.5 3.59375-1.5 4.125-4.625 3.59375-4 4.59375-3 7.1875-5.0937 7.625-7 7.1875-5.0938 8.6875-3 .40625-.1562zm-15.25 10.25-3.625 2.5937-1.5 2-2 2-2.59375 3.5-1.5 3v4.625l1.5 2 1 1h2.59375l2.625-3 2-4.125 2.09375-4 1.5-7-1.59375-2.0937z"/></g></svg>